<svg width="24" height="24" viewBox="0 0 24 24" fill="none" xmlns="http://www.w3.org/2000/svg">
<g clip-path="url(#clip0_101_12)">
<path d="M17.5 21.9167H4.49999C3.30338 21.9167 2.33333 20.9839 2.33333 19.8333V3.16667C2.33333 2.01608 3.30338 1.08334 4.49999 1.08334H12.0833C12.093 1.08213 12.1029 1.08213 12.1126 1.08334H12.1191C12.1293 1.08642 12.1398 1.08851 12.1505 1.08959C12.246 1.09547 12.3404 1.11333 12.4311 1.14271H12.4473H12.4636H12.4766C12.4966 1.15618 12.5154 1.17115 12.5329 1.1875C12.6509 1.23794 12.7585 1.30853 12.8503 1.39584L19.3503 7.64584C19.4411 7.73415 19.5145 7.83756 19.567 7.95104C19.5767 7.97396 19.5843 7.99584 19.5919 8.01979L19.6027 8.04896C19.633 8.13583 19.6508 8.22623 19.6558 8.31771C19.6568 8.32809 19.6593 8.33827 19.6634 8.34792V8.35417C19.6652 8.361 19.6663 8.36797 19.6667 8.375V19.8333C19.6667 20.3859 19.4384 20.9158 19.0321 21.3065C18.6257 21.6972 18.0746 21.9167 17.5 21.9167ZM12.0833 3.16667V8.375H17.5L12.0833 3.16667Z" fill="white"/>
</g>
<defs>
<clipPath id="clip0_101_12">
<rect width="24" height="24" fill="white"/>
</clipPath>
</defs>
</svg>
